<svg width="18" height="18" viewBox="0 0 18 18" fill="none" xmlns="http://www.w3.org/2000/svg">
<path d="M8.98016 16.4262C13.0727 16.4262 16.3904 13.1085 16.3904 9.01594C16.3904 4.92338 13.0727 1.6057 8.98016 1.6057C4.8876 1.6057 1.56992 4.92338 1.56992 9.01594C1.56992 13.1085 4.8876 16.4262 8.98016 16.4262Z" fill="#5E60CE"/>
<path d="M8.96431 1.85958C10.3766 1.85958 11.7571 2.27836 12.9314 3.06297C14.1056 3.84758 15.0208 4.96277 15.5613 6.26752C16.1017 7.57228 16.2431 9.00799 15.9676 10.3931C15.6921 11.7782 15.012 13.0505 14.0134 14.0492C13.0148 15.0478 11.7425 15.7278 10.3573 16.0034C8.97223 16.2789 7.53651 16.1375 6.23176 15.597C4.927 15.0566 3.81181 14.1414 3.0272 12.9671C2.2426 11.7929 1.82381 10.4123 1.82381 9.00007C1.83113 7.10855 2.58577 5.29658 3.9233 3.95906C5.26082 2.62154 7.07278 1.86689 8.96431 1.85958ZM8.96431 0.272801C7.23975 0.279856 5.55595 0.797692 4.12546 1.76094C2.69497 2.72418 1.58194 4.08965 0.926861 5.68495C0.271786 7.28026 0.104042 9.03389 0.444807 10.7245C0.785572 12.415 1.61957 13.9667 2.84151 15.1837C4.06345 16.4007 5.61855 17.2283 7.31049 17.5622C9.00244 17.896 10.7554 17.7211 12.348 17.0595C13.9406 16.398 15.3015 15.2794 16.2589 13.845C17.2163 12.4105 17.7273 10.7246 17.7273 9.00007C17.7273 7.85098 17.5004 6.7132 17.0596 5.65202C16.6187 4.59085 15.9727 3.62717 15.1585 2.8163C14.3443 2.00543 13.378 1.36333 12.3151 0.92685C11.2521 0.490368 10.1134 0.2681 8.96431 0.272801Z" fill="#5E60CE"/>
<path d="M12.4307 6.34214L8.09877 10.6741L5.6163 8.19161L4.7804 9.02751L8.09877 12.3459L13.2666 7.17804L12.4307 6.34214Z" fill="#F2F2F2"/>
</svg>
